<svg xmlns="http://www.w3.org/2000/svg" xmlns:xlink="http://www.w3.org/1999/xlink" id="OBJECTS" x="0px" y="0px" viewBox="0 0 132 66.02" style="enable-background:new 0 0 132 66.02;" xml:space="preserve" width="132"  height="66.02" ><g>	<g>		<path d="M41.23,26.27c-2.07,1.06-3.58,3.04-5.51,4.54c-0.34-1.14-0.63-2.11-1.01-3.37c-0.51,0.56-0.81,0.8-0.98,1.11    c-0.58,1-1.24,1.97-1.64,3.05c-1.89,5.1-5.11,9.43-8.03,14.18c-0.01-0.62-0.05-1.07-0.03-1.52c0.19-3.81,1.07-7.46,2.32-11.05    c0.65-1.86,1.93-2.64,3.68-2.89c2.69-0.39,3.6-1.76,2.81-4.3c-0.54-1.71-1.7-2.63-3.15-2.47c-1.5,0.16-2.35,1.23-2.69,2.99    c-0.35,1.78-0.87,3.52-1.35,5.28c-0.76,2.82-1.55,5.64-2.32,8.46c-0.13,0.47-0.23,0.95-0.34,1.42c-0.85-2.34-1.32-4.67-1.93-6.95    c-0.37-1.35-0.27-2.59,0.34-3.81c0.48-0.96,1.05-1.88,1.54-2.84c1.01-1.99,2.17-3.92,2.94-6c0.56-1.51,1.35-2.49,2.82-3.07    c3.18-1.26,5.24-3.94,7.58-6.25c0.18-0.18,0.21-0.51,0.41-1.01c-3.27,0.11-5.93,1.85-8.99,2.26c0.05-0.92,0.1-1.69,0.13-2.46    c0.12-3.39,0.25-6.78,0.34-10.17c0.01-0.45-0.19-0.91-0.3-1.37C27.69,0.02,27.51,0.01,27.33,0c-0.42,1.04-0.95,2.05-1.24,3.12    c-1.16,4.32-2.25,8.65-3.37,12.98c-0.15,0.6-0.16,1.3-0.5,1.77c-1.11,1.52-2.33,2.96-3.64,4.59c-0.18-1.5,0.39-2.59,1.05-3.69    c1.22-2.02,0.71-4.63-1.15-5.69c-1.6-0.91-3.28-0.85-4.79,0.21c-1.49,1.05-2.23,2.57-1.89,4.42c0.34,1.81,1.61,2.72,3.33,3.07    c0.3,0.06,0.67,0.01,0.88,0.18c0.45,0.36,1.05,0.76,1.17,1.25c0.62,2.5,1.11,5.02,1.65,7.54c-0.86-0.38-1.29-0.99-1.81-1.51    c-1.42-1.4-2.71-3.02-4.36-4.06c-1.72-1.08-3.22-2.3-4.56-3.79c-0.72-0.8-1.49-1.56-2.28-2.29c-0.54-0.49-1.16-0.88-2.11-1.6    c-0.23,2.7,1.49,4.4,1.72,6.45C3.69,23.59,1.8,23.2,0,24.62c1.35,0.68,2.47,1.25,3.59,1.82c2.32,1.18,4.7,2.33,6.32,4.46    c1.66,2.17,3.58,4.01,5.84,5.52c1.21,0.81,2.46,1.6,3.56,2.55c1.75,1.51,2.7,3.44,2.67,6.05c-1.65-1.09-3.03-2.19-4.57-2.96    c-1.65-0.82-3.19-1.73-4.5-3.03c-0.48-0.48-0.87-1.07-1.37-1.52c-1.58-1.44-3.92-1.15-4.73,0.54c-0.58,1.21-0.23,3.15,0.72,4.1    c0.98,0.98,2,1.03,3.59,0.43c0.9-0.34,2.01-0.8,2.82-0.55c2.09,0.64,4.13,1.56,5.97,3.45c-1.06-0.08-1.81-0.21-2.54-0.18    c-1.37,0.05-2.85-0.12-4.08,0.36c-2.92,1.13-5.8,1.68-8.9,1.02c-0.72-0.15-1.74-0.33-2.26,1.01c0.9,0.97,1.86,2.02,2.82,3.05    c-0.46,1.67-2.31,2.53-2.4,4.39c0.33,0.08,0.55,0.19,0.76,0.17c0.46-0.05,0.97-0.06,1.34-0.28c2.92-1.72,5.95-1.66,9.21-1.13    c2.3,0.37,4.73-0.1,7.1-0.26c2.52-0.17,2.63-0.13,3.71,2.08c0.35,0.72,1.15,10.28,2.36,10.32c0.16-0.23,0.5-0.49,0.47-0.7    c-0.25-1.63-1.03-7.98-0.76-9.87c0.6-0.33,3.31-2.31,3.94-2.59c4.83-2.12,8.12-5.7,9.93-10.67c0.15-0.41,0.17-0.87,0.29-1.47    c-1.76,0.27-2.83,1.43-4.06,2.25c-1.25,0.83-2.42,1.8-3.61,2.69c0.76-1.82,1.6-3.46,2.12-5.2c0.32-1.07,0.68-1.98,1.43-2.82    c2.4-2.69,4.05-5.8,4.87-9.33C41.8,27.68,42.25,26.98,41.23,26.27z M27.59,15c2.22-0.67,4.5-1.36,6.77-2.05    c-1.95,2.56-4.06,4.73-7.37,5.96C27.21,17.53,27.38,16.4,27.59,15z M26.98,3.93c-0.4,8.07,0.11,16.34-5.1,23.36    C22.75,19.32,24.49,11.54,26.98,3.93z M21.89,19.55c-0.1,1.75-0.04,3.35-2.1,3.85C20.05,21.67,20.26,21.29,21.89,19.55z     M21.24,23.65c-0.32,2.16-0.59,3.97-0.86,5.78c-0.11,0-0.23,0.01-0.34,0.01c-0.34-1.48-0.68-2.96-1.03-4.49    C19.68,24.57,20.26,24.23,21.24,23.65z M18.58,31.7c-0.79,0.6-1.5,0.31-1.88-0.2c-1.35-1.82-2.59-3.73-3.88-5.6    C15.37,27.24,16.83,29.54,18.58,31.7z M2.55,24.95c-0.01-0.16-0.03-0.33-0.04-0.49c1.14-0.18,2.29-0.36,3.47-0.54    c0.7,1.36,1.31,2.55,2.05,4C6.01,26.83,4.28,25.89,2.55,24.95z M5.59,19.8c3.24,2.01,10.28,11.08,12.85,16.55    C13.3,34.83,8.41,28.09,5.59,19.8z M20.27,37.42c-0.8-1.33-1.59-2.66-2.46-4.12c1.27-0.47,1.87-0.09,2.1,1.04    c0.2,0.98,0.44,1.95,0.67,2.92C20.47,37.31,20.37,37.36,20.27,37.42z M21.76,47.45c-3.84,2.16-7.14,1.27-10.41-0.18    C14.7,45.99,18.04,45.56,21.76,47.45z M4.13,54.44c-0.1-0.13-0.21-0.27-0.31-0.4c0.59-0.83,1.18-1.66,2.06-2.89    c0.75,0.53,1.34,0.94,2.3,1.61C6.58,53.42,5.36,53.93,4.13,54.44z M4.06,47.91c6.49,0.53,12.25,2.09,17.92,4.09    C15.65,53.07,9.37,53.85,4.06,47.91z M19.28,49.49c1.43-0.33,2.42-0.56,3.46-0.8c0.17,0.74,0.31,1.36,0.52,2.27    C21.94,50.47,20.84,50.06,19.28,49.49z M34.27,29.44c1.28,2.99-1.17,3.93-2.25,5.54c-0.17-0.08-0.33-0.16-0.5-0.24    C32.4,33.04,33.29,31.32,34.27,29.44z M27.28,45.21c-0.18,2.13-0.18,2.13-2.26,3.36C25.32,46.89,26.1,45.97,27.28,45.21z     M26,53.72c-0.28-1.23-0.5-2.18-0.74-3.2c2.24-1.29,4.5-2.59,6.97-4.01C30.14,48.93,28.2,51.18,26,53.72z M38.68,43.09    c-0.67,3.36-5.76,7.84-9.47,8.61C30.68,49.15,35.78,44.5,38.68,43.09z M28.09,47.68c-0.22-4.28,3.42-5.22,5.92-7.2    C34.12,43.21,31.73,46.09,28.09,47.68z M26.75,43.95c0.71-2.59,9.83-12.89,13.09-14.79C39.33,33.86,34.46,39.67,26.75,43.95z     M63.58,26.47c-0.1-0.25-0.15-0.61-0.15-1.06v-6.56c0-0.83-0.06-1.48-0.18-1.98c-0.12-0.49-0.31-0.89-0.58-1.2    c-0.27-0.31-0.61-0.54-1.04-0.7c-0.42-0.16-0.96-0.24-1.63-0.24c-1.92,0-3.24,0.75-3.98,2.26V14.8c-0.93,0.22-2.11,0.33-3.54,0.33    c-0.49,0-0.99-0.02-1.5-0.07v0.51c0.58,0,0.98,0.17,1.21,0.51c0.23,0.34,0.34,0.88,0.34,1.64v7.69c0,0.45-0.05,0.81-0.15,1.06    c-0.1,0.25-0.26,0.43-0.49,0.54c-0.23,0.1-0.53,0.15-0.92,0.15v0.51c1.74-0.06,2.85-0.1,3.35-0.1c0.52,0,1.52,0.03,3.01,0.1v-0.51    c-0.32,0-0.58-0.05-0.77-0.15c-0.19-0.1-0.33-0.28-0.41-0.54c-0.09-0.25-0.13-0.61-0.13-1.06v-6.78c0-0.52,0.11-1,0.32-1.43    c0.21-0.43,0.5-0.77,0.87-1.02c0.37-0.25,0.77-0.37,1.21-0.37c0.57,0,0.96,0.17,1.18,0.51c0.22,0.34,0.33,0.84,0.33,1.51v7.58    c0,0.45-0.04,0.81-0.12,1.06c-0.08,0.25-0.22,0.43-0.41,0.54c-0.19,0.1-0.45,0.15-0.78,0.15v0.51c1.61-0.06,2.66-0.1,3.16-0.1    c0.52,0,1.59,0.03,3.2,0.1v-0.51c-0.39,0-0.69-0.05-0.91-0.15C63.85,26.9,63.69,26.72,63.58,26.47z M77.48,26.52    c-0.34,0.28-0.64,0.42-0.9,0.42c-0.19,0-0.32-0.08-0.4-0.24c-0.08-0.16-0.11-0.44-0.11-0.84v-6.63c0-0.91-0.06-1.62-0.18-2.13    c-0.12-0.51-0.35-0.93-0.69-1.27c-0.7-0.73-1.88-1.1-3.54-1.1c-1.48,0-2.71,0.27-3.69,0.82c-0.9,0.52-1.35,1.21-1.35,2.05    c0,0.54,0.16,0.99,0.47,1.34c0.31,0.36,0.73,0.54,1.25,0.54c0.39,0,0.73-0.08,1.03-0.23c0.3-0.16,0.53-0.36,0.69-0.63    c0.16-0.27,0.24-0.57,0.24-0.9c0-0.48-0.13-0.89-0.38-1.21c-0.25-0.32-0.6-0.56-1.05-0.71c0.21-0.2,0.47-0.35,0.78-0.45    c0.32-0.1,0.63-0.15,0.95-0.15c0.68,0,1.18,0.19,1.5,0.58c0.32,0.39,0.48,0.92,0.48,1.59v1.89c0,0.33-0.15,0.64-0.46,0.92    c-0.31,0.28-0.81,0.55-1.5,0.82c-0.69,0.27-1.1,0.42-1.23,0.47c-1.16,0.43-2.02,0.92-2.57,1.48c-0.55,0.56-0.83,1.26-0.83,2.11    c0,0.87,0.28,1.55,0.83,2.04c0.56,0.49,1.3,0.73,2.22,0.73c0.73,0,1.41-0.16,2.05-0.49c0.64-0.33,1.16-0.82,1.55-1.48    c0,0.59,0.18,1.06,0.54,1.43c0.36,0.37,0.95,0.55,1.77,0.55c0.61,0,1.13-0.07,1.56-0.21c0.43-0.14,0.84-0.37,1.21-0.68    L77.48,26.52z M72.58,25.28c-0.46,0.67-1.01,1-1.64,1c-0.45,0-0.81-0.16-1.09-0.47c-0.28-0.31-0.41-0.79-0.41-1.42    c0-0.67,0.15-1.22,0.44-1.67c0.29-0.45,0.69-0.85,1.21-1.21c0.43-0.27,0.77-0.5,1-0.68c0.23-0.19,0.4-0.37,0.5-0.54V25.28z     M79.87,23.79c0,0.9,0.06,1.61,0.18,2.12c0.12,0.51,0.35,0.93,0.69,1.27c0.55,0.56,1.36,0.83,2.43,0.83c1.6,0,2.71-0.84,3.31-2.51    l-0.41-0.23c-0.41,0.98-0.96,1.46-1.64,1.46c-0.36,0-0.63-0.1-0.8-0.3c-0.17-0.2-0.26-0.55-0.26-1.03v-9.83h2.86v-0.49h-2.86    v-4.02c-0.99,0.52-2.16,0.79-3.49,0.79v3.24h-2.03v0.49h2.03V23.79z M87.89,16.09c0.23,0.34,0.35,0.88,0.35,1.63v6.18    c0,0.81,0.06,1.46,0.17,1.96c0.11,0.5,0.31,0.9,0.57,1.2c0.55,0.63,1.43,0.95,2.64,0.95c1.87,0,3.17-0.76,3.9-2.27v2.2    c0.94-0.23,2.12-0.34,3.54-0.34c0.5,0,1,0.02,1.5,0.07v-0.51c-0.57,0-0.97-0.17-1.2-0.51c-0.23-0.34-0.35-0.88-0.35-1.64V14.8    c-0.95,0.22-2.13,0.33-3.54,0.33c-0.49,0-0.99-0.02-1.5-0.07v0.51c0.57,0,0.97,0.17,1.2,0.51c0.23,0.34,0.35,0.88,0.35,1.63v6.39    c0,0.52-0.11,1-0.32,1.43c-0.21,0.43-0.5,0.77-0.86,1.02c-0.36,0.25-0.75,0.38-1.18,0.38c-0.56,0-0.94-0.17-1.14-0.52    c-0.2-0.35-0.3-0.85-0.3-1.53V14.8c-0.95,0.22-2.13,0.33-3.54,0.33c-0.49,0-0.99-0.02-1.5-0.07v0.51    C87.26,15.57,87.66,15.75,87.89,16.09z M108.96,27.67v-0.51c-0.8,0-1.38-0.14-1.74-0.43c-0.36-0.29-0.54-0.81-0.54-1.57v-6.46    c0-0.44,0.1-0.88,0.29-1.34c0.19-0.46,0.46-0.86,0.8-1.18c0.34-0.33,0.71-0.53,1.12-0.59c0.14-0.04,0.27-0.06,0.38-0.06    c0.09,0,0.19,0.01,0.3,0.04c-0.71,0.49-1.07,1.13-1.07,1.9c0,0.48,0.16,0.86,0.48,1.14c0.32,0.28,0.76,0.42,1.31,0.42    c0.57,0,1.03-0.19,1.37-0.57c0.35-0.38,0.52-0.87,0.52-1.48c0-0.39-0.08-0.75-0.24-1.09c-0.16-0.34-0.4-0.61-0.73-0.83    c-0.33-0.21-0.74-0.32-1.23-0.32c-0.73,0-1.39,0.22-1.97,0.65c-0.58,0.43-1.02,0.99-1.33,1.68V14.8    c-0.93,0.22-2.11,0.33-3.54,0.33c-0.49,0-0.99-0.02-1.5-0.07v0.51c0.58,0,0.98,0.17,1.21,0.51c0.23,0.34,0.34,0.88,0.34,1.64v7.69    c0,0.45-0.05,0.81-0.15,1.06c-0.1,0.25-0.26,0.43-0.49,0.54c-0.23,0.1-0.53,0.15-0.92,0.15v0.51c1.8-0.06,2.95-0.1,3.47-0.1    C105.66,27.57,106.94,27.6,108.96,27.67z M119.2,20.19c-0.31,0.28-0.81,0.55-1.5,0.82c-0.69,0.27-1.1,0.42-1.23,0.47    c-1.16,0.43-2.02,0.92-2.57,1.48c-0.55,0.56-0.83,1.26-0.83,2.11c0,0.87,0.28,1.55,0.83,2.04c0.56,0.49,1.3,0.73,2.22,0.73    c0.73,0,1.41-0.16,2.05-0.49c0.64-0.33,1.16-0.82,1.55-1.48c0,0.59,0.18,1.06,0.54,1.43c0.36,0.37,0.95,0.55,1.77,0.55    c0.61,0,1.13-0.07,1.56-0.21c0.43-0.14,0.84-0.37,1.21-0.68l-0.25-0.42c-0.34,0.28-0.64,0.42-0.9,0.42c-0.19,0-0.32-0.08-0.4-0.24    c-0.08-0.16-0.11-0.44-0.11-0.84v-6.63c0-0.91-0.06-1.62-0.18-2.13c-0.12-0.51-0.35-0.93-0.69-1.27c-0.7-0.73-1.88-1.1-3.54-1.1    c-1.48,0-2.71,0.27-3.69,0.82c-0.9,0.52-1.35,1.21-1.35,2.05c0,0.54,0.16,0.99,0.47,1.34c0.31,0.36,0.73,0.54,1.25,0.54    c0.39,0,0.73-0.08,1.03-0.23c0.3-0.16,0.53-0.36,0.69-0.63c0.16-0.27,0.24-0.57,0.24-0.9c0-0.48-0.13-0.89-0.38-1.21    c-0.25-0.32-0.6-0.56-1.05-0.71c0.21-0.2,0.47-0.35,0.78-0.45c0.32-0.1,0.63-0.15,0.95-0.15c0.68,0,1.18,0.19,1.5,0.58    c0.32,0.39,0.48,0.92,0.48,1.59v1.89C119.66,19.61,119.51,19.92,119.2,20.19z M119.66,25.28c-0.46,0.67-1.01,1-1.64,1    c-0.45,0-0.81-0.16-1.09-0.47c-0.28-0.31-0.41-0.79-0.41-1.42c0-0.67,0.15-1.22,0.44-1.67c0.29-0.45,0.69-0.85,1.21-1.21    c0.43-0.27,0.77-0.5,1-0.68c0.23-0.19,0.4-0.37,0.5-0.54V25.28z M131.08,27c-0.22-0.1-0.39-0.28-0.49-0.54    c-0.1-0.25-0.15-0.61-0.15-1.06V8.58c-0.94,0.23-2.12,0.35-3.54,0.35c-0.49,0-0.99-0.02-1.5-0.07v0.51c0.57,0,0.97,0.17,1.2,0.51    c0.23,0.34,0.35,0.88,0.35,1.64v13.9c0,0.45-0.05,0.81-0.15,1.06c-0.1,0.25-0.26,0.43-0.49,0.54c-0.22,0.1-0.53,0.15-0.91,0.15    v0.51c1.67-0.06,2.79-0.1,3.35-0.1c0.49,0,1.57,0.03,3.24,0.1v-0.51C131.61,27.16,131.31,27.1,131.08,27z M61.59,41.1    c-0.66-0.47-1.41-0.7-2.27-0.7c-0.85,0-1.6,0.2-2.25,0.59c-0.65,0.4-1.14,0.97-1.47,1.73v-8.45c-0.94,0.23-2.12,0.35-3.54,0.35    c-0.5,0-1-0.02-1.5-0.07v0.51c0.57,0,0.97,0.17,1.2,0.51c0.23,0.34,0.35,0.88,0.35,1.64v14.95c0,0.49-0.05,0.94-0.17,1.36    l0.37,0.23c0.3-0.27,0.7-0.49,1.2-0.66c0.5-0.17,1.02-0.26,1.54-0.26c0.17,0,0.29,0,0.38,0.01c0.69,0.57,1.59,0.86,2.71,0.86    c1.05,0,1.99-0.24,2.82-0.71c0.83-0.48,1.49-1.23,1.99-2.27c0.49-1.04,0.74-2.37,0.74-3.99c0-1.38-0.19-2.54-0.56-3.49    C62.76,42.27,62.25,41.57,61.59,41.1z M57.41,53.17c-0.67,0-1.27-0.22-1.8-0.65v-8.95c0.13-0.65,0.42-1.17,0.85-1.55    c0.43-0.38,0.91-0.57,1.44-0.57c0.7,0,1.24,0.43,1.6,1.3c0.37,0.87,0.55,2.3,0.55,4.3C60.05,51.13,59.17,53.17,57.41,53.17z     M76.01,45.8c0-3.6-1.52-5.4-4.56-5.4c-1.17,0-2.2,0.25-3.09,0.76c-0.89,0.51-1.59,1.27-2.09,2.28c-0.5,1.01-0.76,2.26-0.76,3.73    c0,1.44,0.23,2.65,0.7,3.62c0.47,0.97,1.12,1.7,1.96,2.17c0.84,0.48,1.82,0.71,2.93,0.71c0.84,0,1.6-0.18,2.25-0.54    c0.66-0.36,1.2-0.83,1.63-1.4c0.43-0.58,0.75-1.2,0.95-1.86l-0.43-0.14c-0.8,1.3-1.87,1.95-3.21,1.95c-0.54,0-1.06-0.17-1.53-0.49    c-0.48-0.33-0.87-0.85-1.17-1.56c-0.3-0.71-0.45-1.6-0.45-2.68c0-0.52,0.01-0.9,0.04-1.14H76.01z M69.16,45.34    c0.09-1.52,0.32-2.63,0.7-3.35c0.38-0.72,0.86-1.08,1.44-1.08c0.57,0,0.99,0.42,1.27,1.26c0.28,0.84,0.41,1.9,0.38,3.17H69.16z     M88.11,52.61c-0.19,0-0.32-0.08-0.4-0.24c-0.08-0.16-0.11-0.44-0.11-0.84V44.9c0-0.91-0.06-1.62-0.18-2.13    c-0.12-0.51-0.35-0.93-0.69-1.27c-0.7-0.73-1.88-1.09-3.54-1.09c-1.48,0-2.71,0.27-3.69,0.82c-0.9,0.52-1.35,1.21-1.35,2.05    c0,0.54,0.16,0.99,0.47,1.34c0.31,0.36,0.73,0.54,1.25,0.54c0.39,0,0.73-0.08,1.03-0.23c0.3-0.15,0.53-0.36,0.69-0.63    c0.16-0.27,0.24-0.57,0.24-0.9c0-0.48-0.13-0.89-0.38-1.21c-0.25-0.32-0.6-0.56-1.05-0.71c0.21-0.2,0.47-0.35,0.78-0.45    c0.32-0.1,0.63-0.15,0.95-0.15c0.68,0,1.18,0.19,1.5,0.58c0.32,0.39,0.48,0.92,0.48,1.59v1.89c0,0.33-0.15,0.64-0.46,0.92    c-0.31,0.28-0.81,0.55-1.5,0.82c-0.69,0.27-1.1,0.42-1.23,0.47c-1.16,0.43-2.02,0.92-2.57,1.48c-0.55,0.56-0.83,1.26-0.83,2.11    c0,0.87,0.28,1.55,0.83,2.04c0.56,0.49,1.3,0.73,2.22,0.73c0.73,0,1.41-0.16,2.05-0.49c0.64-0.33,1.16-0.82,1.55-1.48    c0,0.59,0.18,1.06,0.54,1.43c0.36,0.37,0.95,0.55,1.77,0.55c0.61,0,1.13-0.07,1.56-0.21c0.43-0.14,0.84-0.37,1.21-0.68l-0.25-0.42    C88.67,52.47,88.37,52.61,88.11,52.61z M84.11,50.94c-0.46,0.67-1.01,1-1.65,1c-0.45,0-0.81-0.16-1.09-0.47    c-0.28-0.31-0.41-0.79-0.41-1.42c0-0.67,0.15-1.22,0.44-1.67c0.29-0.45,0.69-0.85,1.21-1.21c0.43-0.27,0.77-0.5,1-0.68    c0.23-0.19,0.4-0.37,0.5-0.54V50.94z M102.38,52.32c-0.23-0.34-0.35-0.88-0.35-1.64V40.47c-0.95,0.22-2.13,0.33-3.54,0.33    c-0.49,0-0.99-0.02-1.5-0.07v0.51c0.57,0,0.97,0.17,1.2,0.51c0.23,0.34,0.35,0.88,0.35,1.63v6.39c0,0.52-0.11,1-0.32,1.43    c-0.21,0.43-0.5,0.77-0.86,1.02c-0.36,0.25-0.75,0.38-1.18,0.38c-0.56,0-0.94-0.17-1.14-0.52c-0.2-0.35-0.3-0.85-0.3-1.53V40.47    c-0.95,0.22-2.13,0.33-3.54,0.33c-0.49,0-0.99-0.02-1.5-0.07v0.51c0.57,0,0.97,0.17,1.2,0.51c0.23,0.34,0.35,0.88,0.35,1.63v6.18    c0,0.81,0.06,1.46,0.17,1.96c0.11,0.5,0.31,0.9,0.57,1.2c0.55,0.63,1.43,0.95,2.64,0.95c1.87,0,3.17-0.76,3.9-2.27v2.2    c0.94-0.23,2.12-0.34,3.54-0.34c0.5,0,1,0.02,1.5,0.07v-0.51C103.01,52.82,102.61,52.66,102.38,52.32z M120.82,40.73v0.49    c0.57,0.04,1.01,0.22,1.33,0.54c0.32,0.32,0.47,0.79,0.47,1.41c0,0.52-0.13,1.17-0.39,1.95l-1.66,4.69l-2.97-7.2    c-0.11-0.27-0.17-0.5-0.17-0.69c0-0.21,0.07-0.37,0.21-0.46c0.14-0.1,0.31-0.15,0.5-0.18c0.2-0.02,0.47-0.04,0.82-0.04v-0.51    c-1.29,0.09-2.42,0.14-3.37,0.14c-1.15,0-2.26-0.05-3.33-0.14v0.02h-2.69v-4.02c-0.99,0.52-2.16,0.79-3.49,0.79v3.24h-2.04v0.49    h2.04v8.21c0,0.9,0.06,1.61,0.18,2.12c0.12,0.51,0.35,0.93,0.69,1.27c0.55,0.56,1.36,0.83,2.43,0.83c1.6,0,2.71-0.84,3.31-2.51    l-0.41-0.23c-0.41,0.98-0.96,1.46-1.64,1.46c-0.36,0-0.63-0.1-0.8-0.3c-0.17-0.2-0.26-0.55-0.26-1.03v-9.83h2.69    c0.25,0,0.5,0.09,0.75,0.26c0.25,0.17,0.5,0.54,0.75,1.11l5.15,11.75l-0.39,1.17c-0.47,1.29-1.2,1.93-2.21,1.93    c-0.25,0-0.44-0.01-0.56-0.02c0.38-0.14,0.68-0.36,0.89-0.65c0.22-0.29,0.33-0.6,0.33-0.93c0-0.48-0.17-0.86-0.5-1.13    s-0.77-0.4-1.32-0.4c-0.58,0-1.05,0.15-1.41,0.45c-0.35,0.3-0.53,0.7-0.53,1.2c0,0.44,0.13,0.8,0.4,1.1    c0.26,0.29,0.6,0.51,1.01,0.65c0.41,0.14,0.82,0.21,1.24,0.21c0.94,0,1.65-0.2,2.12-0.61c0.39-0.31,0.74-0.89,1.07-1.74    l4.33-12.26c0.24-0.67,0.49-1.17,0.76-1.49c0.27-0.32,0.58-0.52,0.92-0.61v-0.49c-0.43,0.05-1.06,0.07-1.87,0.07    C122.36,40.8,121.58,40.78,120.82,40.73z" fill="#D0D0D0"></path>	</g></g></svg>